<?xml version="1.0" standalone="no"?><!DOCTYPE svg PUBLIC "-//W3C//DTD SVG 1.1//EN" "http://www.w3.org/Graphics/SVG/1.1/DTD/svg11.dtd"><svg t="1729966106497" class="icon" viewBox="0 0 1024 1024" version="1.1" xmlns="http://www.w3.org/2000/svg" p-id="4349" xmlns:xlink="http://www.w3.org/1999/xlink" width="30" height="30"><path d="M916.210526 608.013474a107.789474 107.789474 0 0 1 107.789474 107.789473V916.210526a107.789474 107.789474 0 0 1-107.789474 107.789474h-264.434526a107.789474 107.789474 0 0 1-107.789474-107.789474v-200.434526a107.789474 107.789474 0 0 1 107.789474-107.789474H916.210526z m-544.013473-64a107.789474 107.789474 0 0 1 107.789473 107.789473V916.210526a107.789474 107.789474 0 0 1-107.789473 107.789474H107.789474a107.789474 107.789474 0 0 1-107.789474-107.789474v-264.434526a107.789474 107.789474 0 0 1 107.789474-107.789474h264.434526zM916.210526 688.855579h-264.434526a26.947368 26.947368 0 0 0-26.758737 23.794526l-0.161684 3.125895V916.210526a26.947368 26.947368 0 0 0 23.794526 26.758737l3.125895 0.188632H916.210526a26.947368 26.947368 0 0 0 26.758737-23.794527L943.157895 916.210526v-200.434526a26.947368 26.947368 0 0 0-23.794527-26.758737L916.210526 688.855579z m-544.013473-64H107.789474a26.947368 26.947368 0 0 0-26.758737 23.794526L80.842105 651.776V916.210526a26.947368 26.947368 0 0 0 23.794527 26.758737L107.789474 943.157895h264.434526a26.947368 26.947368 0 0 0 26.758737-23.794527l0.188631-3.152842v-264.434526a26.947368 26.947368 0 0 0-23.821473-26.758737l-3.152842-0.161684zM916.210526 0a107.789474 107.789474 0 0 1 107.789474 107.789474v328.434526a107.789474 107.789474 0 0 1-107.789474 107.789474h-264.434526a107.789474 107.789474 0 0 1-107.789474-107.789474V107.789474a107.789474 107.789474 0 0 1 107.789474-107.789474H916.210526zM372.197053 0a107.789474 107.789474 0 0 1 107.789473 107.789474v264.434526a107.789474 107.789474 0 0 1-107.789473 107.789474H107.789474a107.789474 107.789474 0 0 1-107.789474-107.789474V107.789474a107.789474 107.789474 0 0 1 107.789474-107.789474h264.434526zM916.210526 80.842105h-264.434526a26.947368 26.947368 0 0 0-26.758737 23.794527L624.855579 107.789474v328.434526a26.947368 26.947368 0 0 0 23.794526 26.758737l3.125895 0.161684H916.210526a26.947368 26.947368 0 0 0 26.758737-23.794526l0.188632-3.125895V107.789474a26.947368 26.947368 0 0 0-23.794527-26.758737L916.210526 80.842105zM372.197053 80.842105H107.789474a26.947368 26.947368 0 0 0-26.758737 23.794527L80.842105 107.789474v264.434526a26.947368 26.947368 0 0 0 23.794527 26.758737l3.152842 0.188631h264.434526a26.947368 26.947368 0 0 0 26.758737-23.821473l0.188631-3.152842V107.789474a26.947368 26.947368 0 0 0-23.821473-26.758737L372.197053 80.842105z" fill="#bfbfbf" p-id="4350"></path></svg>