<svg t="1729966089185" class="icon" viewBox="0 0 1024 1024" version="1.1"
  xmlns="http://www.w3.org/2000/svg" p-id="4206" xmlns:xlink="http://www.w3.org/1999/xlink"
  width="32" height="32">
  <path
    d="M12.190476 97.52381v292.571428A85.333333 85.333333 0 0 0 97.52381 475.428571h292.571428a85.333333 85.333333 0 0 0 85.333333-85.333333V97.52381A85.333333 85.333333 0 0 0 390.095238 12.190476H97.52381A85.333333 85.333333 0 0 0 12.190476 97.52381z m73.142857 0a12.190476 12.190476 0 0 1 12.190477-12.190477h292.571428a12.190476 12.190476 0 0 1 12.190476 12.190477v292.571428a12.190476 12.190476 0 0 1-12.190476 12.190476H97.52381a12.190476 12.190476 0 0 1-12.190477-12.190476V97.52381zM12.190476 633.904762v292.571428A85.333333 85.333333 0 0 0 97.52381 1011.809524h292.571428a85.333333 85.333333 0 0 0 85.333333-85.333334V633.904762a85.333333 85.333333 0 0 0-85.333333-85.333333H97.52381A85.333333 85.333333 0 0 0 12.190476 633.904762z m73.142857 0a12.190476 12.190476 0 0 1 12.190477-12.190476h292.571428a12.190476 12.190476 0 0 1 12.190476 12.190476v292.571428a12.190476 12.190476 0 0 1-12.190476 12.190477H97.52381a12.190476 12.190476 0 0 1-12.190477-12.190477V633.904762zM633.904762 926.47619h341.333333a36.571429 36.571429 0 0 0 0-73.142857H633.904762a36.571429 36.571429 0 0 0 0 73.142857zM633.904762 682.666667h341.333333a36.571429 36.571429 0 0 0 0-73.142857H633.904762a36.571429 36.571429 0 0 0 0 73.142857zM633.904762 390.095238h341.333333a36.571429 36.571429 0 0 0 0-73.142857H633.904762a36.571429 36.571429 0 0 0 0 73.142857zM633.904762 146.285714h341.333333a36.571429 36.571429 0 0 0 0-73.142857H633.904762a36.571429 36.571429 0 0 0 0 73.142857z"
    fill="#444444" p-id="4207"></path>
</svg>